<?xml version="1.0" encoding="utf-8"?>
<!-- Generator: Adobe Illustrator 23.0.3, SVG Export Plug-In . SVG Version: 6.00 Build 0)  -->
<svg version="1.1" id="Layer_1" xmlns="http://www.w3.org/2000/svg" xmlns:xlink="http://www.w3.org/1999/xlink" x="0px" y="0px"
	 viewBox="0 0 24 24" style="enable-background:new 0 0 24 24;" xml:space="preserve">
<style type="text/css">
	.st0{fill:#FFFFFF;}
</style>
<title></title>
<g id="Mixcloud">
	<path class="st0" d="M19.3,9.9c-0.2,0.1-0.3,0.5-0.2,0.7c0,0,0,0,0,0c1.1,1.8,1.1,4,0,5.8c-0.1,0.2-0.1,0.5,0.2,0.7
		c0.2,0.1,0.5,0.1,0.7-0.2c1.3-2.1,1.3-4.7,0-6.8C19.9,9.9,19.6,9.8,19.3,9.9C19.3,9.9,19.3,9.9,19.3,9.9z"/>
	<path class="st0" d="M22.4,8.2C22.3,8,22,7.9,21.7,8c-0.2,0.1-0.3,0.4-0.2,0.7c0,0,0,0.1,0.1,0.1c1.9,2.9,1.9,6.6,0,9.4
		c-0.2,0.2-0.1,0.5,0.1,0.7c0.2,0.2,0.5,0.1,0.7-0.1c0,0,0-0.1,0.1-0.1C24.5,15.6,24.5,11.4,22.4,8.2z"/>
	<path class="st0" d="M16.3,10.8C16.1,10.8,16,11,16,11.2c-0.1,0.6-0.2,1.2-0.4,1.7c-0.1,0.3-0.4,0.4-0.6,0.3
		c-0.3-0.1-0.4-0.4-0.3-0.6c0,0,0,0,0,0c1.1-2.8-0.2-6-3.1-7.2h-0.1C9.1,4.5,6.4,5.3,5,7.4C4.8,7.6,4.9,8,5.1,8.1
		c0,0,0.1,0.1,0.2,0.1c0.8,0.2,1.6,0.7,2.3,1.3c0.2,0.2,0.2,0.5,0,0.7c0,0,0,0,0,0c-0.2,0.2-0.5,0.2-0.7,0c-0.6-0.6-1.3-1-2.2-1.1
		l0,0C4.5,9,4.2,9,4,9c-2.2,0-4,1.8-4,4s1.8,4,4,4h10.5c1.9,0,3.5-1.6,3.5-3.5c0-1-0.4-2-1.2-2.7C16.6,10.7,16.4,10.7,16.3,10.8z"/>
</g>
</svg>
