<svg xmlns="http://www.w3.org/2000/svg" viewBox="0 0 512 512"><style type="text/css">  
	.st0{fill-rule:evenodd;clip-rule:evenodd;fill:#FFFFFF;}
</style><path class="st0" d="M418.2 244.4c31.1 0 56.3 25.1 56.3 56.2 0 31.1-25.1 56.3-56.3 56.3H266.1V162.7c11.5-4.8 24.2-7.6 37.5-7.6 52 0 94.4 40.8 97.4 91.9C406.4 245.3 412.2 244.4 418.2 244.4L418.2 244.4zM512 486.6V25.7C512 11.5 500.5 0 486.6 0H25.7C11.5 0 0 11.5 0 25.7v460.9C0 500.5 11.5 512 25.7 512h460.9C500.5 512 512 500.5 512 486.6L512 486.6zM163.3 199.6c3.3 62 3.3 95.3 0 157.3h-9.4c-2.7-53.8-2.7-103.4 0-157.3L163.3 199.6 163.3 199.6zM125.5 217.1h9.4c2.7 48.7 2.7 92.2 0 139.7h-9.4C122.5 308.8 122.8 265.2 125.5 217.1L125.5 217.1zM68.3 244.4h9.4c2.7 39 3 72 0 111h-9.4C65.6 316.6 65.6 283.1 68.3 244.4L68.3 244.4zM239.5 175.7h9.4c3.3 71.7 3.3 109.8 0 181.2h-9.4C236.8 295.5 236.8 237.4 239.5 175.7L239.5 175.7zM211.1 205.6h9.4c2.7 51.7 2.7 99.5 0 151.2h-9.4C207.8 297.3 207.8 265.5 211.1 205.6L211.1 205.6zM182.7 196.6h9.4c2.7 54.7 2.7 105.5 0 160.3h-9.4C179.3 293.7 179.3 259.8 182.7 196.6L182.7 196.6zM97.1 246.8h9.4c2.7 38.4 2.7 72 0 110.1h-9.4C93.7 313.6 93.7 290.3 97.1 246.8L97.1 246.8zM39.9 260.1h9.4c3.3 31.8 3.3 49 0 80.7h-9.4C36.9 312.1 36.9 288.8 39.9 260.1L39.9 260.1z"/></svg>